<svg width="154" height="62" viewBox="0 0 154 62" fill="none" xmlns="http://www.w3.org/2000/svg">
<path fill-rule="evenodd" clip-rule="evenodd" d="M45.253 23.1759C45.4216 23.1057 45.5734 23.0511 45.7156 22.9783C45.7565 22.9572 45.7934 22.8847 45.7946 22.8346C45.808 22.3234 45.7055 21.8415 45.3617 21.445C44.9529 20.9736 44.4052 21.0175 44.0608 21.5396C44.0003 21.6318 43.9454 21.7318 43.909 21.8355C43.6862 22.4633 43.7265 23.0759 44.0434 23.6634C44.235 24.019 44.319 24.0249 44.6018 23.7282C44.6062 23.7236 44.6057 23.7146 44.6074 23.7077C44.6074 23.7003 44.6107 23.6909 44.6068 23.6858C44.5866 23.6553 44.5637 23.6261 44.543 23.5957C44.2988 23.239 44.2478 22.8489 44.4024 22.4531C44.4506 22.3297 44.604 22.1761 44.7171 22.1694C44.8325 22.1626 44.9837 22.2993 45.0699 22.4112C45.1511 22.5163 45.1774 22.6688 45.2099 22.8046C45.2368 22.9167 45.2379 23.0351 45.253 23.1759ZM48.4786 23.6773C48.6819 23.7599 48.8566 23.8428 49.0403 23.8982C49.0946 23.9148 49.1988 23.8746 49.2363 23.8263C49.8019 23.0967 49.6602 21.757 48.9608 21.1544C48.4803 20.7404 47.8509 20.7406 47.3838 21.1714C46.9056 21.6127 46.7589 22.1823 46.7992 22.8112C46.8026 22.8659 46.8485 22.9469 46.895 22.9651C47.0859 23.04 47.2842 23.0954 47.4583 23.151C47.5272 22.8611 47.5675 22.5823 47.6622 22.3233C47.7434 22.1001 47.917 21.9278 48.1835 21.9413C48.44 21.9544 48.5789 22.1399 48.6595 22.3556C48.8303 22.812 48.8236 23.2551 48.4786 23.6773ZM46.3243 26.9035C46.7135 26.9019 47.0635 26.7754 47.4012 26.5883C47.7893 26.3733 48.197 26.1921 48.5806 25.9703C48.841 25.8197 49.1081 25.6558 49.3153 25.4428C49.7767 24.969 49.6642 24.4348 49.0739 24.1425C49.0078 24.1096 48.9384 24.0824 48.8706 24.0518C48.3582 23.82 47.8458 23.5871 47.3329 23.3565C47.2108 23.3017 47.0887 23.2469 46.9622 23.2048C46.3148 22.9898 45.7162 23.0805 45.178 23.5075C44.777 23.8256 44.3789 24.1469 43.9818 24.4701C43.7287 24.6762 43.6486 24.9421 43.8189 25.2204C43.955 25.4419 44.1493 25.6364 44.3475 25.8086C44.6382 26.0607 44.9624 26.2732 45.2586 26.5189C45.5711 26.7777 45.9217 26.9057 46.3243 26.9035ZM52.1153 36.0425C51.9658 36.1704 51.8224 36.2497 51.7429 36.3712C51.6023 36.586 51.4534 36.8147 51.394 37.0585C51.2826 37.518 51.1857 37.9905 51.1672 38.4609C51.1297 39.4124 50.941 40.3258 50.6671 41.2339C50.5137 41.7415 50.3966 42.2744 50.3664 42.8018C50.307 43.8391 51.1291 44.6506 52.1718 44.6382C53.0303 44.6281 53.7219 44.2236 54.3312 43.6593C54.5434 43.4632 54.7271 43.2372 54.9276 43.0283C55.4786 42.453 56.182 42.1147 56.8809 41.7663C57.2186 41.5978 57.5579 41.4244 57.8676 41.211C58.235 40.9578 58.3044 40.6565 58.0989 40.2588C57.9606 39.9911 57.7898 39.7322 57.5926 39.5044C57.3166 39.1851 57.1463 38.8277 57.0511 38.4224C56.9766 38.105 56.901 37.7855 56.7924 37.479C56.6412 37.0546 56.3136 36.8304 55.8701 36.7793C55.7452 36.765 55.6142 36.7509 55.4932 36.7737C55.3706 36.7966 55.249 36.8517 55.141 36.9162C54.7859 37.128 54.4594 37.4034 54.0831 37.5579C53.2112 37.9154 52.5521 37.5753 52.2665 36.6731C52.2088 36.4906 52.1763 36.3001 52.1153 36.0425ZM42.205 44.3352C42.4183 44.3108 42.6356 44.3032 42.8445 44.2591C43.9622 44.0239 44.5004 42.9942 44.016 41.9617C43.8222 41.5494 43.5652 41.1535 43.2734 40.8031C42.518 39.896 41.8757 38.9207 41.3448 37.8685C41.2149 37.6101 41.095 37.3392 40.9214 37.1112C40.7086 36.8312 40.4757 36.5475 40.1951 36.3413C39.6743 35.958 39.1126 36.0444 38.6831 36.5265C38.4961 36.7367 38.3275 36.9651 38.164 37.1947C37.9131 37.5467 37.5861 37.7854 37.1767 37.92C36.9723 37.9872 36.7662 38.0556 36.5725 38.1473C36.1435 38.3504 35.9077 38.6918 35.9296 39.1747C35.9425 39.463 35.9811 39.7515 36.027 40.0368C36.097 40.4699 36.097 40.891 35.9335 41.3086C35.8641 41.4864 35.8282 41.6807 35.8002 41.8709C35.7112 42.4642 35.924 42.7976 36.5042 42.9435C36.8054 43.0192 37.1162 43.0671 37.4254 43.097C38.4826 43.1989 39.5069 43.3921 40.4617 43.901C40.9948 44.1849 41.5901 44.3128 42.205 44.3352ZM43.3205 40.252C43.4706 40.4506 43.6167 40.6026 43.7147 40.7809C43.997 41.293 44.445 41.5863 44.9708 41.7872C45.1511 41.8561 45.3314 41.9284 45.5174 41.9766C47.2623 42.4282 48.8197 41.9608 50.2701 40.9919C50.3362 40.9477 50.3866 40.8566 50.4112 40.7771C50.6106 40.1373 50.7438 39.4888 50.7842 38.8136C50.8206 38.2014 50.9102 37.587 51.0401 36.9874C51.1638 36.4159 51.4853 35.956 52.0442 35.6967C52.108 35.6671 52.1612 35.568 52.1786 35.4919C52.3191 34.868 52.6635 34.6204 53.3036 34.6989C53.7992 34.7597 54.2489 34.9549 54.6784 35.1959C55.146 35.4581 55.6147 35.7273 55.519 36.3796C55.6914 36.4425 55.7435 36.3595 55.7631 36.2304C55.8225 35.8274 55.655 35.5033 55.351 35.2753C55.015 35.0229 54.647 34.8095 54.2786 34.6042C54.1212 34.5163 54.0383 34.4484 54.0882 34.2506C54.1346 34.0657 54.1481 33.8677 54.1458 33.6759C54.1268 31.9592 53.3484 30.5874 52.1842 29.3945C52.15 29.3597 52.0934 29.3465 52.0475 29.3231C52.0307 29.3413 52.0134 29.3594 51.9966 29.3776C52.0632 29.4663 52.1209 29.5648 52.1987 29.6421C52.6383 30.0761 52.9715 30.5831 53.2325 31.138C53.6407 32.0053 53.8412 32.9064 53.634 33.8647C53.5416 34.2933 53.5382 34.2865 53.1076 34.2435C52.9693 34.2296 52.8987 34.1893 52.8702 34.043C52.6518 32.9336 52.2452 31.8909 51.7227 30.8922C50.8486 29.2208 50.1626 27.4752 49.6401 25.6638C49.625 25.612 49.5986 25.5635 49.5902 25.5438C49.2918 25.7457 49.0157 25.9577 48.7166 26.1288C48.3118 26.3601 47.8834 26.5487 47.4757 26.7757C46.5657 27.2828 45.7363 27.2025 44.9551 26.5159C44.8543 26.4277 44.7569 26.335 44.6488 26.2573C44.4948 26.1467 44.3324 26.048 44.1515 25.9298C44.1364 26.0011 44.1291 26.0352 44.1224 26.0693C44.0098 26.6214 43.9281 27.1819 43.7797 27.724C43.4521 28.9175 42.9313 30.0382 42.4026 31.1524C41.9227 32.1631 41.5022 33.1916 41.3347 34.3062C41.2838 34.6478 41.2518 34.9923 41.2042 35.3918C41.1342 35.2929 41.09 35.2385 41.0542 35.1791C40.7708 34.7088 40.6442 34.194 40.6358 33.6495C40.6235 32.8215 40.8526 32.049 41.2009 31.3086C41.3874 30.9121 41.5957 30.5261 41.7889 30.133C41.8309 30.0473 41.8522 29.9512 41.8914 29.8352C41.8365 29.8551 41.8174 29.8559 41.8113 29.8652C41.7351 29.984 41.6584 30.1024 41.5873 30.2241C41.0211 31.1884 40.5031 32.1738 40.3032 33.2905C40.0887 34.4894 40.339 35.5386 41.3274 36.3304C41.5643 36.52 41.8292 36.6747 42.0818 36.8446C42.7319 37.2822 43.3574 37.7542 43.8071 38.4048C43.997 38.6792 44.1498 39.0001 44.2327 39.3221C44.3492 39.7734 44.0709 40.1226 43.6094 40.2042C43.5305 40.2182 43.4504 40.2306 43.3205 40.252ZM43.1698 22.6324C43.2202 21.8561 43.2124 21.0709 43.3317 20.3054C43.6554 18.2323 44.9725 17.0917 47.0792 17.009C47.53 16.9913 47.9892 16.9956 48.4344 17.0594C49.7045 17.2412 50.596 17.9451 51.1196 19.1148C51.5021 19.9692 51.646 20.8778 51.6964 21.8018C51.73 22.4169 51.7675 23.0374 51.725 23.6499C51.627 25.0592 52.1052 26.2578 52.9547 27.3433C53.536 28.086 54.133 28.8179 54.684 29.5829C55.4932 30.7067 56.1232 31.9247 56.4334 33.2868C56.6647 34.3044 56.6642 35.3205 56.3578 36.3257C56.3186 36.4553 56.3354 36.5261 56.4626 36.5908C56.8182 36.7714 57.0545 37.062 57.1676 37.4424C57.2695 37.7837 57.3294 38.1389 57.4515 38.4722C57.549 38.7383 57.7002 38.9872 57.848 39.2317C58.0462 39.5605 58.3027 39.8596 58.464 40.2041C58.6863 40.6776 58.5676 41.1145 58.1554 41.4388C57.895 41.6435 57.5971 41.8037 57.3059 41.9653C57.0013 42.1345 56.6832 42.2806 56.3718 42.4384C55.8085 42.7236 55.3207 43.1006 54.9069 43.5824C54.3995 44.1729 53.7846 44.6216 53.0342 44.8593C51.73 45.2726 50.6206 44.7609 50.0791 43.5119C50.0517 43.4489 49.9598 43.3809 49.8915 43.3736C49.2352 43.3035 48.5744 43.2669 47.9209 43.1795C47.0641 43.0651 46.233 43.2094 45.3986 43.3599C45.0996 43.4139 44.7966 43.4471 44.497 43.4997C44.4326 43.511 44.3503 43.5504 44.3201 43.6024C43.7942 44.5114 42.9453 44.7489 41.9899 44.659C41.4652 44.6096 40.9091 44.5086 40.4454 44.2751C39.4246 43.7611 38.3482 43.5536 37.2333 43.438C36.8676 43.4 36.498 43.3161 36.1519 43.1928C35.6451 43.0123 35.3993 42.6257 35.4278 42.0863C35.4429 41.7933 35.4995 41.4942 35.5919 41.2158C35.7101 40.8579 35.728 40.5067 35.6765 40.1402C35.63 39.8097 35.5785 39.4771 35.5701 39.1445C35.5561 38.5625 35.8349 38.1317 36.3462 37.8665C36.5887 37.7407 36.8514 37.6512 37.1101 37.5595C37.4142 37.4513 37.6566 37.2713 37.8498 37.0125C38.0542 36.7389 38.2754 36.4782 38.4815 36.2062C38.5218 36.1532 38.5521 36.0709 38.5448 36.0069C38.3947 34.6833 38.7503 33.4579 39.2734 32.268C39.9308 30.7737 40.8425 29.4384 41.8701 28.1791C42.9246 26.8872 43.3815 25.4057 43.2981 23.749C43.279 23.3781 43.2538 23.0074 43.2314 22.6367C43.2107 22.6352 43.1906 22.6338 43.1698 22.6324Z" fill="#1E1E1E"/>
<path fill-rule="evenodd" clip-rule="evenodd" d="M43.3205 40.252C43.4504 40.2306 43.5305 40.2182 43.6095 40.2042C44.0709 40.1226 44.3492 39.7734 44.2328 39.3221C44.1499 39.0001 43.997 38.6792 43.8072 38.4048C43.3575 37.7542 42.732 37.2822 42.0818 36.8446C41.8292 36.6747 41.5643 36.5201 41.3275 36.3304C40.3391 35.5386 40.0887 34.4894 40.3032 33.2905C40.5031 32.1738 41.0211 31.1884 41.5873 30.2241C41.6584 30.1024 41.7351 29.984 41.8113 29.8652C41.8175 29.8559 41.8365 29.8551 41.8914 29.8352C41.8522 29.9512 41.8309 30.0473 41.7889 30.133C41.5957 30.5261 41.3874 30.9121 41.2009 31.3086C40.8526 32.049 40.6235 32.8215 40.6359 33.6495C40.6443 34.194 40.7708 34.7088 41.0542 35.1791C41.09 35.2385 41.1343 35.2929 41.2043 35.3918C41.2519 34.9923 41.2838 34.6478 41.3347 34.3062C41.5022 33.1916 41.9227 32.1631 42.4027 31.1524C42.9313 30.0382 43.4521 28.9175 43.7797 27.724C43.9281 27.1819 44.0099 26.6214 44.1224 26.0693C44.1292 26.0352 44.1364 26.0011 44.1516 25.9298C44.3324 26.048 44.4948 26.1467 44.6488 26.2573C44.7569 26.335 44.8544 26.4277 44.9552 26.5159C45.7364 27.2025 46.5657 27.2828 47.4757 26.7757C47.8834 26.5487 48.3118 26.3601 48.7167 26.1288C49.0157 25.9577 49.2918 25.7458 49.5903 25.5438C49.5987 25.5635 49.625 25.612 49.6401 25.6638C50.1626 27.4752 50.8486 29.2208 51.7228 30.8922C52.2452 31.8909 52.6518 32.9336 52.8702 34.043C52.8988 34.1893 52.9693 34.2296 53.1076 34.2435C53.5383 34.2865 53.5416 34.2933 53.634 33.8648C53.8412 32.9064 53.6408 32.0053 53.2325 31.1381C52.9716 30.5831 52.6384 30.0761 52.1988 29.6421C52.1209 29.5648 52.0632 29.4663 51.9966 29.3776C52.0134 29.3594 52.0308 29.3413 52.0476 29.3231C52.0935 29.3465 52.15 29.3597 52.1842 29.3945C53.3484 30.5874 54.1268 31.9592 54.1459 33.6759C54.1481 33.8677 54.1347 34.0657 54.0882 34.2506C54.0384 34.4484 54.1212 34.5163 54.2786 34.6042C54.6471 34.8095 55.015 35.0229 55.351 35.2753C55.6551 35.5033 55.8225 35.8274 55.7632 36.2304C55.7436 36.3595 55.6915 36.4425 55.519 36.3796C55.6148 35.7273 55.146 35.4581 54.6784 35.1959C54.2489 34.9549 53.7992 34.7597 53.3036 34.6989C52.6636 34.6204 52.3192 34.868 52.1786 35.4919C52.1612 35.568 52.108 35.6671 52.0442 35.6967C51.4853 35.956 51.1639 36.4159 51.0401 36.9874C50.9102 37.587 50.8206 38.2015 50.7842 38.8136C50.7439 39.4888 50.6106 40.1373 50.4112 40.7771C50.3866 40.8566 50.3362 40.9477 50.2701 40.9919C48.8197 41.9608 47.2624 42.4282 45.5174 41.9766C45.3315 41.9284 45.1512 41.8561 44.9708 41.7872C44.445 41.5863 43.997 41.293 43.7148 40.7809C43.6168 40.6026 43.4706 40.4506 43.3205 40.252Z" fill="white"/>
<path fill-rule="evenodd" clip-rule="evenodd" d="M42.205 44.3352C41.5901 44.3128 40.9948 44.1849 40.4617 43.901C39.5069 43.3921 38.4827 43.1989 37.4254 43.097C37.1163 43.0671 36.8055 43.0192 36.5042 42.9435C35.924 42.7976 35.7112 42.4642 35.8003 41.8709C35.8283 41.6807 35.8641 41.4864 35.9335 41.3086C36.0971 40.891 36.0971 40.4699 36.0271 40.0369C35.9811 39.7515 35.9425 39.463 35.9296 39.1747C35.9078 38.6918 36.1435 38.3504 36.5725 38.1473C36.7663 38.0556 36.9723 37.9872 37.1767 37.92C37.5861 37.7854 37.9131 37.5467 38.164 37.1947C38.3275 36.9651 38.4961 36.7367 38.6831 36.5265C39.1127 36.0444 39.6743 35.958 40.1951 36.3414C40.4757 36.5475 40.7087 36.8312 40.9215 37.1112C41.0951 37.3392 41.2149 37.6101 41.3448 37.8685C41.8757 38.9207 42.518 39.896 43.2735 40.8031C43.5652 41.1535 43.8223 41.5494 44.016 41.9617C44.5004 42.9942 43.9623 44.0239 42.8445 44.2591C42.6356 44.3032 42.4183 44.3108 42.205 44.3352Z" fill="white"/>
<path fill-rule="evenodd" clip-rule="evenodd" d="M52.1153 36.0425C52.1763 36.3001 52.2088 36.4906 52.2665 36.6732C52.5521 37.5753 53.2112 37.9154 54.0831 37.558C54.4595 37.4035 54.786 37.128 55.141 36.9163C55.2491 36.8517 55.3706 36.7966 55.4932 36.7737C55.6142 36.7509 55.7452 36.765 55.8701 36.7793C56.3136 36.8304 56.6412 37.0546 56.7924 37.4791C56.9011 37.7855 56.9767 38.105 57.0512 38.4224C57.1464 38.8277 57.3166 39.1851 57.5927 39.5044C57.7898 39.7322 57.9606 39.9911 58.0989 40.2588C58.3044 40.6565 58.235 40.9578 57.8676 41.211C57.558 41.4244 57.2186 41.5979 56.8809 41.7663C56.182 42.1147 55.4787 42.453 54.9276 43.0283C54.7272 43.2373 54.5435 43.4632 54.3312 43.6593C53.722 44.2236 53.0304 44.6281 52.1719 44.6382C51.1291 44.6506 50.3071 43.8391 50.3664 42.8018C50.3967 42.2744 50.5137 41.7416 50.6671 41.2339C50.941 40.3258 51.1297 39.4125 51.1672 38.4609C51.1857 37.9905 51.2826 37.518 51.394 37.0586C51.4534 36.8147 51.6023 36.586 51.7429 36.3712C51.8224 36.2497 51.9658 36.1704 52.1153 36.0425Z" fill="white"/>
<path fill-rule="evenodd" clip-rule="evenodd" d="M45.4429 23.7466C45.6809 23.8587 45.8013 23.6957 45.9452 23.6271C45.7621 23.5319 45.6115 23.5702 45.4429 23.7466ZM46.5931 23.6238C46.7051 23.6755 46.7477 23.7029 46.7947 23.7154C46.8883 23.7404 46.984 23.7572 47.0792 23.7773C47.0843 23.745 47.1016 23.6878 47.0938 23.6841C46.9963 23.6389 46.8972 23.5938 46.7942 23.566C46.755 23.5556 46.704 23.59 46.5931 23.6238ZM44.1555 24.7729C44.1247 24.7879 44.0944 24.8029 44.0642 24.8178C44.1073 24.9082 44.1286 25.0222 44.1975 25.0849C44.4265 25.2944 44.66 25.5033 44.9148 25.68C45.4255 26.0345 45.9979 26.1756 46.6071 26.0197C47.4169 25.8127 48.1371 25.4214 48.7603 24.8612C48.8309 24.7977 48.8785 24.7085 48.9373 24.6312C48.9216 24.6126 48.9054 24.5941 48.8897 24.5755C48.8326 24.6044 48.7631 24.6209 48.72 24.664C48.1376 25.2523 47.4365 25.6386 46.6497 25.8711C46.1659 26.0139 45.6826 25.9697 45.2519 25.708C44.9383 25.5172 44.6578 25.27 44.3705 25.0375C44.2843 24.9674 44.226 24.8621 44.1555 24.7729ZM46.3243 26.9035C45.9217 26.9057 45.5711 26.7777 45.2587 26.5189C44.9624 26.2732 44.6382 26.0607 44.3475 25.8086C44.1493 25.6365 43.955 25.4419 43.8189 25.2204C43.6487 24.9421 43.7288 24.6762 43.9819 24.4702C44.3789 24.1469 44.7771 23.8256 45.178 23.5075C45.7162 23.0806 46.3148 22.9898 46.9622 23.2048C47.0887 23.2469 47.2108 23.3018 47.3329 23.3565C47.8459 23.5871 48.3583 23.82 48.8707 24.0518C48.9384 24.0825 49.0079 24.1096 49.0739 24.1425C49.6642 24.4348 49.7767 24.969 49.3153 25.4428C49.1081 25.6558 48.841 25.8198 48.5806 25.9703C48.197 26.1922 47.7893 26.3734 47.4012 26.5883C47.0635 26.7754 46.7135 26.902 46.3243 26.9035Z" fill="white"/>
<path fill-rule="evenodd" clip-rule="evenodd" d="M48.4786 23.6773C48.8236 23.2551 48.8303 22.812 48.6595 22.3556C48.5789 22.1399 48.44 21.9544 48.1835 21.9413C47.917 21.9278 47.7434 22.1001 47.6622 22.3233C47.5675 22.5822 47.5272 22.8611 47.4583 23.151C47.2842 23.0954 47.0859 23.04 46.895 22.9651C46.8485 22.9469 46.8026 22.8659 46.7992 22.8112C46.7589 22.1823 46.9056 21.6127 47.3838 21.1714C47.8509 20.7406 48.4803 20.7404 48.9608 21.1544C49.6602 21.757 49.8019 23.0967 49.2363 23.8263C49.1988 23.8746 49.0946 23.9148 49.0403 23.8982C48.8566 23.8428 48.6819 23.7599 48.4786 23.6773Z" fill="white"/>
<path fill-rule="evenodd" clip-rule="evenodd" d="M45.253 23.1759C45.2379 23.0351 45.2368 22.9167 45.2099 22.8046C45.1774 22.6688 45.1511 22.5163 45.0699 22.4112C44.9837 22.2993 44.8325 22.1626 44.7171 22.1694C44.604 22.1761 44.4506 22.3298 44.4024 22.4531C44.2478 22.8489 44.2988 23.239 44.543 23.5957C44.5637 23.6262 44.5866 23.6553 44.6068 23.6858C44.6107 23.6909 44.6074 23.7003 44.6079 23.7077C44.6057 23.7146 44.6062 23.7236 44.6018 23.7282C44.319 24.0249 44.235 24.019 44.0434 23.6634C43.7265 23.0759 43.6862 22.4633 43.909 21.8355C43.9454 21.7318 44.0003 21.6318 44.0608 21.5396C44.4052 21.0175 44.9529 20.9737 45.3617 21.445C45.7055 21.8415 45.808 22.3234 45.7946 22.8346C45.7934 22.8847 45.7565 22.9572 45.7156 22.9783C45.5734 23.0511 45.4216 23.1057 45.253 23.1759Z" fill="white"/>
<path fill-rule="evenodd" clip-rule="evenodd" d="M44.1554 24.7729C44.226 24.8621 44.2842 24.9673 44.3705 25.0374C44.6577 25.27 44.9383 25.5171 45.2519 25.7079C45.6825 25.9697 46.1658 26.0139 46.6497 25.871C47.4365 25.6385 48.1376 25.2523 48.72 24.664C48.7631 24.6208 48.8326 24.6043 48.8897 24.5755C48.9054 24.594 48.9216 24.6126 48.9373 24.6311C48.8785 24.7084 48.8309 24.7977 48.7603 24.8612C48.137 25.4213 47.4169 25.8127 46.6071 26.0197C45.9978 26.1755 45.4255 26.0345 44.9148 25.68C44.66 25.5033 44.4265 25.2943 44.1974 25.0848C44.1285 25.0222 44.1073 24.9082 44.0641 24.8178C44.0944 24.8028 44.1246 24.7879 44.1554 24.7729Z" fill="#1E1E1E"/>
<path fill-rule="evenodd" clip-rule="evenodd" d="M46.5931 23.6237C46.704 23.59 46.755 23.5555 46.7942 23.566C46.8972 23.5937 46.9963 23.6389 47.0938 23.6841C47.1016 23.6877 47.0843 23.7449 47.0792 23.7772C46.984 23.7571 46.8883 23.7403 46.7947 23.7154C46.7477 23.7029 46.7051 23.6754 46.5931 23.6237Z" fill="#1E1E1E"/>
<path fill-rule="evenodd" clip-rule="evenodd" d="M45.4429 23.7466C45.6114 23.5702 45.7621 23.5318 45.9452 23.627C45.8013 23.6956 45.6809 23.8587 45.4429 23.7466Z" fill="#1E1E1E"/>
<path d="M80.494 37V24.4H83.41V34.624H89.728V37H80.494ZM91.1593 37V27.316H93.9673V37H91.1593ZM92.5633 25.966C92.0473 25.966 91.6273 25.816 91.3033 25.516C90.9793 25.216 90.8173 24.844 90.8173 24.4C90.8173 23.956 90.9793 23.584 91.3033 23.284C91.6273 22.984 92.0473 22.834 92.5633 22.834C93.0793 22.834 93.4993 22.978 93.8233 23.266C94.1473 23.542 94.3093 23.902 94.3093 24.346C94.3093 24.814 94.1473 25.204 93.8233 25.516C93.5113 25.816 93.0913 25.966 92.5633 25.966ZM102.459 27.172C103.227 27.172 103.911 27.328 104.511 27.64C105.123 27.94 105.603 28.408 105.951 29.044C106.299 29.668 106.473 30.472 106.473 31.456V37H103.665V31.888C103.665 31.108 103.491 30.532 103.143 30.16C102.807 29.788 102.327 29.602 101.703 29.602C101.259 29.602 100.857 29.698 100.497 29.89C100.149 30.07 99.8733 30.352 99.6693 30.736C99.4773 31.12 99.3813 31.612 99.3813 32.212V37H96.5733V27.316H99.2553V29.998L98.7513 29.188C99.0993 28.54 99.5973 28.042 100.245 27.694C100.893 27.346 101.631 27.172 102.459 27.172ZM113.105 37.144C112.301 37.144 111.581 36.988 110.945 36.676C110.321 36.364 109.835 35.89 109.487 35.254C109.139 34.606 108.965 33.784 108.965 32.788V27.316H111.773V32.374C111.773 33.178 111.941 33.772 112.277 34.156C112.625 34.528 113.111 34.714 113.735 34.714C114.167 34.714 114.551 34.624 114.887 34.444C115.223 34.252 115.487 33.964 115.679 33.58C115.871 33.184 115.967 32.692 115.967 32.104V27.316H118.775V37H116.111V34.336L116.597 35.11C116.273 35.782 115.793 36.292 115.157 36.64C114.533 36.976 113.849 37.144 113.105 37.144ZM120.152 37L124.49 31.312L124.436 32.86L120.278 27.316H123.428L126.056 30.934L124.868 30.97L127.586 27.316H130.574L126.398 32.806V31.294L130.718 37H127.532L124.778 33.148L125.948 33.31L123.212 37H120.152Z" fill="white"/>
<rect x="1" y="1" width="152" height="60" rx="10" stroke="white" stroke-opacity="0.25"/>
<rect x="1" y="1" width="152" height="60" rx="10" stroke="url(#paint0_linear_106_2406)"/>
<defs>
<linearGradient id="paint0_linear_106_2406" x1="153" y1="31.4615" x2="1" y2="31.4615" gradientUnits="userSpaceOnUse">
<stop offset="0.174352" stop-color="white" stop-opacity="0"/>
<stop offset="0.466058" stop-color="white"/>
<stop offset="0.841108" stop-color="white" stop-opacity="0"/>
</linearGradient>
</defs>
</svg>
