<svg width="142" height="62" viewBox="0 0 142 62" fill="none" xmlns="http://www.w3.org/2000/svg">
<path fill-rule="evenodd" clip-rule="evenodd" d="M54.6978 31.8764C54.6642 28.332 57.6126 26.6293 57.7459 26.5468C56.0877 24.1397 53.5072 23.8101 52.5871 23.7702C50.3903 23.5497 48.3009 25.0544 47.1871 25.0544C46.0738 25.0544 44.3529 23.8037 42.5324 23.8379C40.1367 23.8721 37.9303 25.2193 36.6955 27.3465C34.2091 31.6325 36.0604 37.9795 38.4841 41.4554C39.6691 43.1545 41.0808 45.0673 42.9367 44.9982C44.7236 44.9291 45.399 43.8522 47.5578 43.8522C49.7171 43.8522 50.3247 44.9982 52.2136 44.9626C54.1367 44.9291 55.3541 43.23 56.5307 41.5244C57.8915 39.5507 58.4509 37.64 58.4845 37.5417C58.4425 37.5228 54.7359 36.1128 54.6978 31.8764Z" fill="white"/>
<path fill-rule="evenodd" clip-rule="evenodd" d="M51.148 21.471C52.1336 20.2866 52.7966 18.6405 52.6146 17C51.1967 17.0575 49.4786 17.9387 48.4594 19.1218C47.5472 20.17 46.7481 21.8453 46.9642 23.453C48.5457 23.5747 50.1624 22.6543 51.148 21.471Z" fill="white"/>
<path d="M80.494 37V24.4H82.906L88.27 33.292H86.992L92.266 24.4H94.66L94.696 37H91.96L91.942 28.594H92.446L88.234 35.668H86.92L82.618 28.594H83.23V37H80.494ZM103.427 37V35.11L103.247 34.696V31.312C103.247 30.712 103.061 30.244 102.689 29.908C102.329 29.572 101.771 29.404 101.015 29.404C100.499 29.404 99.9894 29.488 99.4854 29.656C98.9934 29.812 98.5734 30.028 98.2254 30.304L97.2174 28.342C97.7454 27.97 98.3814 27.682 99.1254 27.478C99.8694 27.274 100.625 27.172 101.393 27.172C102.869 27.172 104.015 27.52 104.831 28.216C105.647 28.912 106.055 29.998 106.055 31.474V37H103.427ZM100.475 37.144C99.7194 37.144 99.0714 37.018 98.5314 36.766C97.9914 36.502 97.5774 36.148 97.2894 35.704C97.0014 35.26 96.8574 34.762 96.8574 34.21C96.8574 33.634 96.9954 33.13 97.2714 32.698C97.5594 32.266 98.0094 31.93 98.6214 31.69C99.2334 31.438 100.031 31.312 101.015 31.312H103.589V32.95H101.321C100.661 32.95 100.205 33.058 99.9534 33.274C99.7134 33.49 99.5934 33.76 99.5934 34.084C99.5934 34.444 99.7314 34.732 100.007 34.948C100.295 35.152 100.685 35.254 101.177 35.254C101.645 35.254 102.065 35.146 102.437 34.93C102.809 34.702 103.079 34.372 103.247 33.94L103.679 35.236C103.475 35.86 103.103 36.334 102.563 36.658C102.023 36.982 101.327 37.144 100.475 37.144ZM113.347 37.144C112.303 37.144 111.373 36.934 110.557 36.514C109.741 36.082 109.099 35.488 108.631 34.732C108.175 33.976 107.947 33.118 107.947 32.158C107.947 31.186 108.175 30.328 108.631 29.584C109.099 28.828 109.741 28.24 110.557 27.82C111.373 27.388 112.303 27.172 113.347 27.172C114.367 27.172 115.255 27.388 116.011 27.82C116.767 28.24 117.325 28.846 117.685 29.638L115.507 30.808C115.255 30.352 114.937 30.016 114.553 29.8C114.181 29.584 113.773 29.476 113.329 29.476C112.849 29.476 112.417 29.584 112.033 29.8C111.649 30.016 111.343 30.322 111.115 30.718C110.899 31.114 110.791 31.594 110.791 32.158C110.791 32.722 110.899 33.202 111.115 33.598C111.343 33.994 111.649 34.3 112.033 34.516C112.417 34.732 112.849 34.84 113.329 34.84C113.773 34.84 114.181 34.738 114.553 34.534C114.937 34.318 115.255 33.976 115.507 33.508L117.685 34.696C117.325 35.476 116.767 36.082 116.011 36.514C115.255 36.934 114.367 37.144 113.347 37.144Z" fill="white"/>
<rect x="1" y="1" width="140" height="60" rx="10" stroke="white" stroke-opacity="0.25"/>
<rect x="1" y="1" width="140" height="60" rx="10" stroke="url(#paint0_linear_106_2420)"/>
<defs>
<linearGradient id="paint0_linear_106_2420" x1="141" y1="31.4615" x2="1" y2="31.4615" gradientUnits="userSpaceOnUse">
<stop offset="0.0952723" stop-color="white" stop-opacity="0"/>
<stop offset="0.276042" stop-color="white"/>
<stop offset="0.59304" stop-color="white" stop-opacity="0"/>
</linearGradient>
</defs>
</svg>
