<svg width="23" height="28" viewBox="0 0 23 28" fill="none" xmlns="http://www.w3.org/2000/svg">
<path fill-rule="evenodd" clip-rule="evenodd" d="M17.099 0C17.281 1.6405 16.618 3.2866 15.6324 4.471C14.6468 5.6543 13.0301 6.5747 11.4486 6.453C11.2325 4.8453 12.0316 3.17 12.9438 2.1218C13.963 0.9387 15.6811 0.0575008 17.099 0ZM22.2174 9.55464C21.9673 9.70596 19.1494 11.4108 19.1823 14.8763C19.2196 19.0245 22.7743 20.4628 22.9617 20.5386C22.9657 20.5402 22.9681 20.5412 22.969 20.5416C22.9671 20.5471 22.9636 20.5582 22.9584 20.5747C22.8705 20.8533 22.3001 22.6607 21.0152 24.5243C19.8386 26.2299 18.6212 27.929 16.6981 27.9625C15.7751 27.9799 15.158 27.7152 14.5163 27.4399C13.8449 27.1518 13.1465 26.8521 12.0423 26.8521C10.8861 26.8521 10.1554 27.161 9.45159 27.4585C8.84124 27.7165 8.25109 27.966 7.4212 27.9981C5.5653 28.0672 4.1536 26.1544 2.9686 24.4553C0.544899 20.9794 -1.3064 14.6324 1.18 10.3464C2.41479 8.21921 4.62119 6.87201 7.01689 6.83781C8.04893 6.81842 9.04896 7.21197 9.92443 7.5565C10.5933 7.81971 11.1894 8.05431 11.6716 8.05431C12.1043 8.05431 12.6842 7.82723 13.3605 7.56242C14.425 7.14558 15.7282 6.63527 17.0716 6.77011C17.9917 6.81001 20.5722 7.13961 22.2304 9.54671C22.2274 9.54855 22.2231 9.55119 22.2174 9.55464Z" fill="white"/>
</svg>
