<svg width="35" height="34" viewBox="0 0 35 34" fill="none" xmlns="http://www.w3.org/2000/svg">
<rect x="10.8333" y="10.5" width="23" height="23" rx="3.5" fill="url(#paint0_linear_172_6687)" stroke="white"/>
<path fill-rule="evenodd" clip-rule="evenodd" d="M13.3333 6H21.3333C22.7499 6 23.7522 6.00078 24.5358 6.0648C25.3077 6.12787 25.7789 6.24729 26.1492 6.43597C26.9019 6.81947 27.5138 7.43139 27.8973 8.18404C28.0102 8.40563 28.0983 8.66334 28.1644 9H29.1803C29.0996 8.50794 28.9764 8.0993 28.7883 7.73005C28.3089 6.78924 27.544 6.02433 26.6032 5.54497C25.5336 5 24.1335 5 21.3333 5H13.3333C10.533 5 9.13286 5 8.0633 5.54497C7.12249 6.02433 6.35759 6.78924 5.87822 7.73005C5.33325 8.79961 5.33325 10.1997 5.33325 13V21C5.33325 23.8003 5.33325 25.2004 5.87822 26.27C6.35759 27.2108 7.12249 27.9757 8.0633 28.455C8.43255 28.6432 8.8412 28.7664 9.33325 28.847V27.8311C8.99659 27.765 8.73888 27.6769 8.51729 27.564C7.76464 27.1805 7.15272 26.5686 6.76923 25.816C6.58054 25.4457 6.46112 24.9745 6.39805 24.2026C6.33403 23.419 6.33325 22.4166 6.33325 21V13C6.33325 11.5834 6.33403 10.581 6.39805 9.79744C6.46112 9.02552 6.58054 8.55435 6.76923 8.18404C7.15272 7.43139 7.76464 6.81947 8.51729 6.43597C8.8876 6.24729 9.35877 6.12787 10.1307 6.0648C10.9143 6.00078 11.9166 6 13.3333 6Z" fill="white" fill-opacity="0.2"/>
<path fill-rule="evenodd" clip-rule="evenodd" d="M9.93325 1H14.7333C16.4299 1 17.6423 1.00078 18.5926 1.07842C19.5313 1.15512 20.1259 1.30179 20.6032 1.54497C21.544 2.02433 22.3089 2.78924 22.7883 3.73005C22.832 3.8158 22.8726 3.90535 22.9102 4H23.9681C23.8898 3.74161 23.7947 3.50265 23.6793 3.27606C23.1041 2.14708 22.1862 1.2292 21.0572 0.653961C19.7737 0 18.0936 0 14.7333 0H9.93325C6.57294 0 4.89278 0 3.60931 0.653961C2.48034 1.2292 1.56245 2.14708 0.987213 3.27606C0.333252 4.55953 0.333252 6.23969 0.333252 9.6V14.4C0.333252 17.7603 0.333252 19.4405 0.987213 20.7239C1.56245 21.8529 2.48034 22.7708 3.60931 23.346C3.8359 23.4615 4.07486 23.5566 4.33325 23.6349V22.5769C4.2386 22.5393 4.14906 22.4987 4.0633 22.455C3.12249 21.9757 2.35759 21.2108 1.87822 20.27C1.63504 19.7927 1.48837 19.198 1.41168 18.2594C1.33403 17.309 1.33325 16.0967 1.33325 14.4V9.6C1.33325 7.90334 1.33403 6.69099 1.41168 5.74064C1.48837 4.80197 1.63504 4.20731 1.87822 3.73005C2.35759 2.78924 3.12249 2.02433 4.0633 1.54497C4.54057 1.30179 5.13522 1.15512 6.0739 1.07842C7.02424 1.00078 8.23659 1 9.93325 1Z" fill="white" fill-opacity="0.2"/>
<defs>
<linearGradient id="paint0_linear_172_6687" x1="22.3333" y1="10" x2="22.3333" y2="34" gradientUnits="userSpaceOnUse">
<stop stop-color="white" stop-opacity="0"/>
<stop offset="1" stop-color="white" stop-opacity="0.25"/>
</linearGradient>
</defs>
</svg>
