<svg width="28" height="26" viewBox="0 0 28 26" fill="none" xmlns="http://www.w3.org/2000/svg">
<rect opacity="0.3" x="4.5" y="1" width="10" height="1" rx="0.2" fill="white"/>
<rect opacity="0.3" x="2.5" y="4" width="12" height="2" rx="0.2" fill="white"/>
<rect x="0.5" y="8" width="14" height="3" rx="0.2" fill="white"/>
<rect opacity="0.3" x="2.5" y="13" width="12" height="2" rx="0.2" fill="white"/>
<rect opacity="0.3" x="4.5" y="17" width="10" height="1" rx="0.2" fill="white"/>
<g filter="url(#filter0_d_172_6700)">
<rect x="5.5" width="18" height="18" rx="9" fill="url(#paint0_linear_172_6700)" shape-rendering="crispEdges"/>
<rect x="6" y="0.5" width="17" height="17" rx="8.5" stroke="white" shape-rendering="crispEdges"/>
</g>
<path d="M21.7071 14.7929L21 14.0858L19.5858 15.5L20.2929 16.2071L21.7071 14.7929ZM24.7929 20.7071C25.1834 21.0976 25.8166 21.0976 26.2071 20.7071C26.5976 20.3166 26.5976 19.6834 26.2071 19.2929L24.7929 20.7071ZM20.2929 16.2071L24.7929 20.7071L26.2071 19.2929L21.7071 14.7929L20.2929 16.2071Z" fill="white"/>
<defs>
<filter id="filter0_d_172_6700" x="1.5" y="0" width="26" height="26" filterUnits="userSpaceOnUse" color-interpolation-filters="sRGB">
<feFlood flood-opacity="0" result="BackgroundImageFix"/>
<feColorMatrix in="SourceAlpha" type="matrix" values="0 0 0 0 0 0 0 0 0 0 0 0 0 0 0 0 0 0 127 0" result="hardAlpha"/>
<feOffset dy="4"/>
<feGaussianBlur stdDeviation="2"/>
<feComposite in2="hardAlpha" operator="out"/>
<feColorMatrix type="matrix" values="0 0 0 0 0 0 0 0 0 0 0 0 0 0 0 0 0 0 0.25 0"/>
<feBlend mode="normal" in2="BackgroundImageFix" result="effect1_dropShadow_172_6700"/>
<feBlend mode="normal" in="SourceGraphic" in2="effect1_dropShadow_172_6700" result="shape"/>
</filter>
<linearGradient id="paint0_linear_172_6700" x1="14.5" y1="0" x2="14.5" y2="18" gradientUnits="userSpaceOnUse">
<stop stop-color="white" stop-opacity="0"/>
<stop offset="1" stop-color="white" stop-opacity="0.25"/>
</linearGradient>
</defs>
</svg>
