<svg width="34" height="34" viewBox="0 0 34 34" fill="none" xmlns="http://www.w3.org/2000/svg">
<path d="M0.75 16.8892H4.75" stroke="white" stroke-linecap="round"/>
<path d="M29.25 16.8892L33.25 16.8892" stroke="white" stroke-linecap="round"/>
<path opacity="0.25" d="M17 4.63916L17 0.63916" stroke="white" stroke-linecap="round"/>
<path opacity="0.25" d="M10.875 6.2804L8.875 2.81629" stroke="white" stroke-linecap="round"/>
<path opacity="0.25" d="M6.39111 10.7642L2.92701 8.76416" stroke="white" stroke-linecap="round"/>
<path d="M2.927 25.0142L6.3911 23.0142" stroke="white" stroke-linecap="round"/>
<path d="M27.6086 10.7642L31.0727 8.76416" stroke="white" stroke-linecap="round"/>
<path opacity="0.25" d="M23.125 6.2804L25.125 2.81629" stroke="white" stroke-linecap="round"/>
<circle opacity="0.1" cx="17" cy="16.8892" r="9" fill="#D9D9D9"/>
<path d="M28.5639 28.1477C28.8476 28.244 29.1012 28.2705 29.3248 28.2272C29.5507 28.1778 29.7418 28.0811 29.8981 27.937C30.0506 27.7847 30.1543 27.6042 30.2095 27.3957C30.2668 27.181 30.2666 26.9627 30.2088 26.7407C30.151 26.5188 30.0229 26.3093 29.8244 26.1123L17.635 13.975C17.3664 13.7041 17.0931 13.5318 16.815 13.4583C16.5308 13.3826 16.2699 13.395 16.0324 13.4956C15.791 13.5879 15.604 13.7589 15.4716 14.0086C15.3391 14.2583 15.2881 14.5792 15.3186 14.9714L16.7929 32.0214C16.8195 32.329 16.9031 32.5846 17.0438 32.7882C17.1761 32.9958 17.3429 33.1465 17.5442 33.2406C17.7433 33.3408 17.9513 33.3784 18.1683 33.3534C18.383 33.3346 18.5819 33.2545 18.7649 33.1133C18.9418 32.9699 19.0804 32.7605 19.1806 32.4852L21.6138 25.8571C21.6383 25.7898 21.6703 25.7495 21.7098 25.7362C21.7454 25.7145 21.7968 25.7159 21.8641 25.7404L28.5639 28.1477Z" fill="white"/>
</svg>
