<svg width="24" height="28" viewBox="0 0 24 28" fill="none" xmlns="http://www.w3.org/2000/svg">
<path fill-rule="evenodd" clip-rule="evenodd" d="M9.82742 6.1759C9.99602 6.1057 10.1478 6.05111 10.29 5.97831C10.3309 5.95721 10.3678 5.88471 10.369 5.83461C10.3824 5.32341 10.2799 4.8415 9.93612 4.445C9.52732 3.9736 8.97962 4.01751 8.63522 4.53961C8.57472 4.63181 8.51982 4.73181 8.48342 4.83551C8.26062 5.46331 8.30092 6.07591 8.61782 6.66341C8.80942 7.01901 8.89342 7.02491 9.17622 6.72821C9.18062 6.72361 9.18012 6.71461 9.18182 6.70771C9.18182 6.70031 9.18512 6.69091 9.18122 6.68581C9.16102 6.65531 9.13812 6.6261 9.11742 6.5957C8.87322 6.239 8.82222 5.84891 8.97682 5.45311C9.02502 5.32971 9.17842 5.1761 9.29152 5.1694C9.40692 5.1626 9.55812 5.2993 9.64432 5.4112C9.72552 5.5163 9.75182 5.66881 9.78432 5.80461C9.81122 5.91671 9.81232 6.0351 9.82742 6.1759ZM13.053 6.6773C13.2563 6.7599 13.431 6.8428 13.6147 6.8982C13.669 6.9148 13.7732 6.8746 13.8107 6.8263C14.3763 6.0967 14.2346 4.75701 13.5352 4.15441C13.0547 3.74041 12.4253 3.74061 11.9582 4.17141C11.48 4.61271 11.3333 5.1823 11.3736 5.8112C11.377 5.8659 11.4229 5.9469 11.4694 5.9651C11.6603 6.04 11.8586 6.0954 12.0327 6.151C12.1016 5.8611 12.1419 5.5823 12.2366 5.3233C12.3178 5.1001 12.4914 4.9278 12.7579 4.9413C13.0144 4.9544 13.1533 5.13991 13.2339 5.35561C13.4047 5.81201 13.398 6.2551 13.053 6.6773ZM10.8987 9.9035C11.2879 9.9019 11.6379 9.77541 11.9756 9.58831C12.3637 9.37331 12.7714 9.19211 13.155 8.97031C13.4154 8.81971 13.6825 8.65581 13.8897 8.44281C14.3511 7.96901 14.2386 7.43481 13.6483 7.14251C13.5822 7.10961 13.5128 7.08241 13.445 7.05181C12.9326 6.82001 12.4202 6.58711 11.9073 6.35651C11.7852 6.30171 11.6631 6.2469 11.5366 6.2048C10.8892 5.9898 10.2906 6.0805 9.75243 6.5075C9.35143 6.8256 8.95332 7.14691 8.55622 7.47011C8.30312 7.67621 8.22302 7.9421 8.39332 8.2204C8.52942 8.4419 8.72372 8.6364 8.92192 8.8086C9.21262 9.0607 9.53682 9.2732 9.83302 9.5189C10.1455 9.7777 10.4961 9.9057 10.8987 9.9035ZM16.6897 19.0425C16.5402 19.1704 16.3968 19.2497 16.3173 19.3712C16.1767 19.586 16.0278 19.8147 15.9684 20.0585C15.857 20.518 15.7601 20.9905 15.7416 21.4609C15.7041 22.4124 15.5154 23.3258 15.2415 24.2339C15.0881 24.7415 14.971 25.2744 14.9408 25.8018C14.8814 26.8391 15.7035 27.6506 16.7462 27.6382C17.6047 27.6281 18.2963 27.2236 18.9056 26.6593C19.1178 26.4632 19.3015 26.2372 19.502 26.0283C20.053 25.453 20.7564 25.1147 21.4553 24.7663C21.793 24.5978 22.1323 24.4244 22.442 24.211C22.8094 23.9578 22.8788 23.6565 22.6733 23.2588C22.535 22.9911 22.3642 22.7322 22.167 22.5044C21.891 22.1851 21.7207 21.8277 21.6255 21.4224C21.551 21.105 21.4754 20.7855 21.3668 20.479C21.2156 20.0546 20.888 19.8304 20.4445 19.7793C20.3196 19.765 20.1886 19.7509 20.0676 19.7737C19.945 19.7966 19.8234 19.8517 19.7154 19.9162C19.3603 20.128 19.0338 20.4034 18.6575 20.5579C17.7856 20.9154 17.1265 20.5753 16.8409 19.6731C16.7832 19.4906 16.7507 19.3001 16.6897 19.0425ZM6.77943 27.3352C6.99273 27.3108 7.21002 27.3032 7.41892 27.2591C8.53662 27.0239 9.07482 25.9942 8.59042 24.9617C8.39662 24.5494 8.13962 24.1535 7.84782 23.8031C7.09242 22.896 6.45012 21.9207 5.91922 20.8685C5.78932 20.6101 5.66942 20.3392 5.49582 20.1112C5.28302 19.8312 5.05012 19.5475 4.76952 19.3413C4.24872 18.958 3.68703 19.0444 3.25753 19.5265C3.07053 19.7367 2.90193 19.9651 2.73843 20.1947C2.48753 20.5467 2.16052 20.7854 1.75112 20.92C1.54672 20.9872 1.34062 21.0556 1.14692 21.1473C0.717922 21.3504 0.482123 21.6918 0.504023 22.1747C0.516923 22.463 0.555524 22.7515 0.601424 23.0368C0.671424 23.4699 0.671422 23.891 0.507922 24.3086C0.438522 24.4864 0.402625 24.6807 0.374625 24.8709C0.285625 25.4642 0.498424 25.7976 1.07862 25.9435C1.37982 26.0192 1.69062 26.0671 1.99982 26.097C3.05702 26.1989 4.08132 26.3921 5.03612 26.901C5.56922 27.1849 6.16453 27.3128 6.77943 27.3352ZM7.89492 23.252C8.04502 23.4506 8.19112 23.6026 8.28912 23.7809C8.57142 24.293 9.01942 24.5863 9.54522 24.7872C9.72552 24.8561 9.90582 24.9284 10.0918 24.9766C11.8367 25.4282 13.3941 24.9608 14.8445 23.9919C14.9106 23.9477 14.961 23.8566 14.9856 23.7771C15.185 23.1373 15.3182 22.4888 15.3586 21.8136C15.395 21.2014 15.4846 20.587 15.6145 19.9874C15.7382 19.4159 16.0597 18.956 16.6186 18.6967C16.6824 18.6671 16.7356 18.568 16.753 18.4919C16.8935 17.868 17.2379 17.6204 17.878 17.6989C18.3736 17.7597 18.8233 17.9549 19.2528 18.1959C19.7204 18.4581 20.1891 18.7273 20.0934 19.3796C20.2658 19.4425 20.3179 19.3595 20.3375 19.2304C20.3969 18.8274 20.2294 18.5033 19.9254 18.2753C19.5894 18.0229 19.2214 17.8095 18.853 17.6042C18.6956 17.5163 18.6127 17.4484 18.6626 17.2506C18.709 17.0657 18.7225 16.8677 18.7202 16.6759C18.7012 14.9592 17.9228 13.5874 16.7586 12.3945C16.7244 12.3597 16.6678 12.3465 16.6219 12.3231C16.6051 12.3413 16.5878 12.3594 16.571 12.3776C16.6376 12.4663 16.6953 12.5648 16.7731 12.6421C17.2127 13.0761 17.5459 13.5831 17.8069 14.138C18.2151 15.0053 18.4156 15.9064 18.2084 16.8647C18.116 17.2933 18.1126 17.2865 17.682 17.2435C17.5437 17.2296 17.4731 17.1893 17.4446 17.043C17.2262 15.9336 16.8196 14.8909 16.2971 13.8922C15.423 12.2208 14.737 10.4752 14.2145 8.6638C14.1994 8.612 14.173 8.56351 14.1646 8.54381C13.8662 8.74571 13.5901 8.9577 13.291 9.1288C12.8862 9.3601 12.4578 9.5487 12.0501 9.7757C11.1401 10.2828 10.3107 10.2025 9.52952 9.5159C9.42872 9.4277 9.33132 9.335 9.22322 9.2573C9.06922 9.1467 8.90682 9.048 8.72592 8.9298C8.71082 9.0011 8.70352 9.0352 8.69682 9.0693C8.58422 9.6214 8.50253 10.1819 8.35413 10.724C8.02653 11.9175 7.50572 13.0382 6.97702 14.1524C6.49712 15.1631 6.07662 16.1916 5.90912 17.3062C5.85822 17.6478 5.82622 17.9923 5.77862 18.3918C5.70862 18.2929 5.66442 18.2385 5.62862 18.1791C5.34522 17.7088 5.21862 17.194 5.21022 16.6495C5.19792 15.8215 5.42702 15.049 5.77532 14.3086C5.96182 13.9121 6.17012 13.5261 6.36332 13.133C6.40532 13.0473 6.42662 12.9512 6.46582 12.8352C6.41092 12.8551 6.39182 12.8559 6.38572 12.8652C6.30952 12.984 6.23282 13.1024 6.16172 13.2241C5.59552 14.1884 5.07752 15.1738 4.87762 16.2905C4.66312 17.4894 4.91342 18.5386 5.90182 19.3304C6.13872 19.52 6.40362 19.6747 6.65622 19.8446C7.30632 20.2822 7.93182 20.7542 8.38152 21.4048C8.57142 21.6792 8.72422 22.0001 8.80712 22.3221C8.92362 22.7734 8.64533 23.1226 8.18383 23.2042C8.10493 23.2182 8.02482 23.2306 7.89492 23.252ZM7.74422 5.63241C7.79462 4.85611 7.78682 4.07091 7.90612 3.30541C8.22982 1.23231 9.54692 0.0917059 11.6536 0.00900592C12.1044 -0.00869408 12.5636 -0.0043943 13.0088 0.0594057C14.2789 0.241206 15.1704 0.945105 15.694 2.1148C16.0765 2.9692 16.2204 3.8778 16.2708 4.80181C16.3044 5.41691 16.3419 6.03741 16.2994 6.64991C16.2014 8.05921 16.6796 9.2578 17.5291 10.3433C18.1104 11.086 18.7074 11.8179 19.2584 12.5829C20.0676 13.7067 20.6976 14.9247 21.0078 16.2868C21.2391 17.3044 21.2386 18.3205 20.9322 19.3257C20.893 19.4553 20.9098 19.5261 21.037 19.5908C21.3926 19.7714 21.6289 20.062 21.742 20.4424C21.8439 20.7837 21.9038 21.1389 22.0259 21.4722C22.1234 21.7383 22.2746 21.9872 22.4224 22.2317C22.6206 22.5605 22.8771 22.8596 23.0384 23.2041C23.2607 23.6776 23.142 24.1145 22.7298 24.4388C22.4694 24.6435 22.1715 24.8037 21.8803 24.9653C21.5757 25.1345 21.2576 25.2806 20.9462 25.4384C20.3829 25.7236 19.8951 26.1006 19.4813 26.5824C18.9739 27.1729 18.359 27.6216 17.6086 27.8593C16.3044 28.2726 15.195 27.7609 14.6535 26.5119C14.6261 26.4489 14.5342 26.3809 14.4659 26.3736C13.8096 26.3035 13.1488 26.2669 12.4953 26.1795C11.6385 26.0651 10.8074 26.2094 9.97303 26.3599C9.67403 26.4139 9.37103 26.4471 9.07143 26.4997C9.00703 26.511 8.92472 26.5504 8.89452 26.6024C8.36862 27.5114 7.51972 27.7489 6.56432 27.659C6.03962 27.6096 5.48352 27.5086 5.01982 27.2751C3.99902 26.7611 2.92262 26.5536 1.80772 26.438C1.44202 26.4 1.07242 26.3161 0.726325 26.1928C0.219525 26.0123 -0.0262773 25.6257 0.00222273 25.0863C0.0173227 24.7933 0.0739234 24.4942 0.166323 24.2158C0.284523 23.8579 0.302422 23.5067 0.250922 23.1402C0.204422 22.8097 0.152922 22.4771 0.144522 22.1445C0.130522 21.5625 0.409323 21.1317 0.920623 20.8665C1.16312 20.7407 1.42582 20.6512 1.68452 20.5595C1.98862 20.4513 2.23102 20.2713 2.42422 20.0125C2.62862 19.7389 2.84982 19.4782 3.05592 19.2062C3.09622 19.1532 3.12652 19.0709 3.11922 19.0069C2.96912 17.6833 3.32472 16.4579 3.84782 15.268C4.50522 13.7737 5.41692 12.4384 6.44452 11.1791C7.49902 9.8872 7.95592 8.40571 7.87252 6.74901C7.85342 6.37811 7.82822 6.0074 7.80582 5.6367C7.78512 5.6352 7.76502 5.63381 7.74422 5.63241Z" fill="#1E1E1E"/>
<path fill-rule="evenodd" clip-rule="evenodd" d="M7.89499 23.2512C8.02489 23.2298 8.10499 23.2174 8.18399 23.2034C8.64539 23.1218 8.92369 22.7726 8.80729 22.3213C8.72439 21.9993 8.57149 21.6784 8.38169 21.404C7.93199 20.7534 7.30649 20.2814 6.65629 19.8438C6.40369 19.6739 6.13879 19.5193 5.90199 19.3296C4.91359 18.5378 4.66319 17.4886 4.87769 16.2897C5.07759 15.173 5.59559 14.1876 6.16179 13.2233C6.23289 13.1016 6.30959 12.9832 6.38579 12.8644C6.39199 12.8551 6.41099 12.8543 6.46589 12.8344C6.42669 12.9504 6.40539 13.0465 6.36339 13.1322C6.17019 13.5253 5.96189 13.9113 5.77539 14.3078C5.42709 15.0482 5.19799 15.8207 5.21039 16.6487C5.21879 17.1932 5.34529 17.708 5.62869 18.1783C5.66449 18.2377 5.70879 18.2921 5.77879 18.391C5.82639 17.9915 5.85829 17.647 5.90919 17.3054C6.07669 16.1908 6.49719 15.1623 6.97719 14.1516C7.50579 13.0374 8.02659 11.9167 8.35419 10.7232C8.50259 10.1811 8.58439 9.62057 8.69689 9.06847C8.70369 9.03437 8.71089 9.00027 8.72609 8.92897C8.90689 9.04717 9.06929 9.14587 9.22329 9.25647C9.33139 9.33417 9.42889 9.42687 9.52969 9.51507C10.3109 10.2017 11.1402 10.282 12.0502 9.77487C12.4579 9.54787 12.8863 9.35927 13.2912 9.12797C13.5902 8.95687 13.8663 8.74497 14.1648 8.54297C14.1732 8.56267 14.1995 8.61117 14.2146 8.66297C14.7371 10.4744 15.4231 12.22 16.2973 13.8914C16.8197 14.8901 17.2263 15.9328 17.4447 17.0422C17.4733 17.1885 17.5438 17.2288 17.6821 17.2427C18.1128 17.2857 18.1161 17.2925 18.2085 16.864C18.4157 15.9056 18.2153 15.0045 17.807 14.1373C17.5461 13.5823 17.2129 13.0753 16.7733 12.6413C16.6954 12.564 16.6377 12.4655 16.5711 12.3768C16.5879 12.3586 16.6053 12.3405 16.6221 12.3223C16.668 12.3457 16.7245 12.3589 16.7587 12.3937C17.9229 13.5866 18.7013 14.9584 18.7204 16.6751C18.7226 16.8669 18.7092 17.0649 18.6627 17.2498C18.6129 17.4476 18.6957 17.5155 18.8531 17.6034C19.2216 17.8087 19.5895 18.0221 19.9255 18.2745C20.2296 18.5025 20.397 18.8266 20.3377 19.2296C20.3181 19.3587 20.266 19.4417 20.0935 19.3788C20.1893 18.7265 19.7205 18.4573 19.2529 18.1951C18.8234 17.9541 18.3737 17.7589 17.8781 17.6981C17.2381 17.6196 16.8937 17.8672 16.7531 18.4911C16.7357 18.5672 16.6825 18.6663 16.6187 18.6959C16.0598 18.9552 15.7384 19.4151 15.6146 19.9866C15.4847 20.5862 15.3951 21.2007 15.3587 21.8128C15.3184 22.488 15.1851 23.1365 14.9857 23.7763C14.9611 23.8558 14.9107 23.9469 14.8446 23.9911C13.3942 24.96 11.8369 25.4274 10.0919 24.9758C9.90599 24.9276 9.72569 24.8553 9.54529 24.7864C9.01949 24.5855 8.57149 24.2922 8.28929 23.7801C8.19129 23.6018 8.04509 23.4498 7.89499 23.2512Z" fill="white"/>
<path fill-rule="evenodd" clip-rule="evenodd" d="M6.77944 27.3353C6.16454 27.3129 5.56924 27.185 5.03614 26.9011C4.08134 26.3922 3.05714 26.199 1.99984 26.0971C1.69074 26.0672 1.37994 26.0193 1.07864 25.9436C0.498441 25.7977 0.285641 25.4643 0.374741 24.871C0.402741 24.6808 0.438539 24.4865 0.507939 24.3087C0.671539 23.8911 0.67154 23.47 0.60154 23.037C0.55554 22.7516 0.51694 22.4631 0.50404 22.1748C0.48224 21.6919 0.717939 21.3505 1.14694 21.1474C1.34074 21.0557 1.54674 20.9873 1.75114 20.9201C2.16054 20.7855 2.48754 20.5468 2.73844 20.1948C2.90194 19.9652 3.07054 19.7368 3.25754 19.5266C3.68714 19.0445 4.24874 18.9581 4.76954 19.3415C5.05014 19.5476 5.28314 19.8313 5.49594 20.1113C5.66954 20.3393 5.78934 20.6102 5.91924 20.8686C6.45014 21.9208 7.09244 22.8961 7.84794 23.8032C8.13964 24.1536 8.39674 24.5495 8.59044 24.9618C9.07484 25.9943 8.53674 27.024 7.41894 27.2592C7.21004 27.3033 6.99274 27.3109 6.77944 27.3353Z" fill="white"/>
<path fill-rule="evenodd" clip-rule="evenodd" d="M16.6898 19.043C16.7508 19.3006 16.7833 19.4911 16.841 19.6737C17.1266 20.5758 17.7857 20.9159 18.6576 20.5585C19.034 20.404 19.3605 20.1285 19.7155 19.9168C19.8236 19.8522 19.9451 19.7971 20.0677 19.7742C20.1887 19.7514 20.3197 19.7655 20.4446 19.7798C20.8881 19.8309 21.2157 20.0551 21.3669 20.4796C21.4756 20.786 21.5512 21.1055 21.6257 21.4229C21.7209 21.8282 21.8911 22.1856 22.1672 22.5049C22.3643 22.7327 22.5351 22.9916 22.6734 23.2593C22.8789 23.657 22.8095 23.9583 22.4421 24.2115C22.1325 24.4249 21.7931 24.5984 21.4554 24.7668C20.7565 25.1152 20.0532 25.4535 19.5021 26.0288C19.3017 26.2378 19.118 26.4637 18.9057 26.6598C18.2965 27.2241 17.6049 27.6286 16.7464 27.6387C15.7036 27.6511 14.8816 26.8396 14.9409 25.8023C14.9712 25.2749 15.0882 24.7421 15.2416 24.2344C15.5155 23.3263 15.7042 22.413 15.7417 21.4614C15.7602 20.991 15.8571 20.5185 15.9685 20.0591C16.0279 19.8152 16.1768 19.5865 16.3174 19.3717C16.3969 19.2502 16.5403 19.1709 16.6898 19.043Z" fill="white"/>
<path fill-rule="evenodd" clip-rule="evenodd" d="M10.0173 6.74568C10.2553 6.85778 10.3757 6.69478 10.5196 6.62618C10.3365 6.53098 10.1859 6.56928 10.0173 6.74568ZM11.1675 6.62289C11.2795 6.67459 11.3221 6.70199 11.3691 6.71449C11.4627 6.73949 11.5584 6.75628 11.6536 6.77638C11.6587 6.74408 11.676 6.68688 11.6682 6.68318C11.5707 6.63798 11.4716 6.59288 11.3686 6.56508C11.3294 6.55468 11.2784 6.58909 11.1675 6.62289ZM8.72993 7.77198C8.69913 7.78698 8.66883 7.80199 8.63863 7.81689C8.68173 7.90729 8.70303 8.02128 8.77193 8.08398C9.00093 8.29348 9.23443 8.50239 9.48923 8.67909C9.99993 9.03359 10.5723 9.17468 11.1815 9.01878C11.9913 8.81178 12.7115 8.42049 13.3347 7.86029C13.4053 7.79679 13.4529 7.70759 13.5117 7.63029C13.496 7.61169 13.4798 7.59319 13.4641 7.57459C13.407 7.60349 13.3375 7.61998 13.2944 7.66308C12.712 8.25138 12.0109 8.63768 11.2241 8.87018C10.7403 9.01298 10.257 8.96878 9.82633 8.70708C9.51273 8.51628 9.23223 8.26909 8.94493 8.03659C8.85873 7.96649 8.80043 7.86118 8.72993 7.77198ZM10.8987 9.90258C10.4961 9.90478 10.1455 9.77678 9.83313 9.51798C9.53683 9.27228 9.21263 9.05978 8.92193 8.80768C8.72373 8.63558 8.52943 8.44098 8.39333 8.21948C8.22313 7.94118 8.30323 7.67528 8.55633 7.46928C8.95333 7.14598 9.35153 6.82468 9.75243 6.50658C10.2906 6.07968 10.8892 5.98888 11.5366 6.20388C11.6631 6.24598 11.7852 6.30089 11.9073 6.35559C12.4203 6.58619 12.9327 6.81908 13.4451 7.05088C13.5128 7.08158 13.5823 7.10868 13.6483 7.14158C14.2386 7.43388 14.3511 7.96809 13.8897 8.44189C13.6825 8.65489 13.4154 8.81889 13.155 8.96939C12.7714 9.19129 12.3637 9.37249 11.9756 9.58739C11.6379 9.77449 11.2879 9.90108 10.8987 9.90258Z" fill="white"/>
<path fill-rule="evenodd" clip-rule="evenodd" d="M13.0531 6.67694C13.3981 6.25474 13.4048 5.81164 13.234 5.35524C13.1534 5.13954 13.0145 4.95404 12.758 4.94094C12.4915 4.92744 12.3179 5.09974 12.2367 5.32294C12.142 5.58184 12.1017 5.86073 12.0328 6.15064C11.8587 6.09504 11.6604 6.03964 11.4695 5.96474C11.423 5.94654 11.3771 5.86554 11.3737 5.81084C11.3334 5.18194 11.4801 4.61234 11.9583 4.17104C12.4254 3.74024 13.0548 3.74004 13.5353 4.15404C14.2347 4.75664 14.3764 6.09634 13.8108 6.82594C13.7733 6.87424 13.6691 6.91444 13.6148 6.89784C13.4311 6.84244 13.2564 6.75954 13.0531 6.67694Z" fill="white"/>
<path fill-rule="evenodd" clip-rule="evenodd" d="M9.82751 6.17512C9.81241 6.03432 9.81131 5.91592 9.78441 5.80382C9.75191 5.66802 9.72561 5.51552 9.64441 5.41042C9.55821 5.29852 9.40701 5.16182 9.29161 5.16862C9.17851 5.17532 9.02511 5.32902 8.97691 5.45232C8.82231 5.84812 8.87331 6.23822 9.11751 6.59492C9.13821 6.62542 9.16111 6.65452 9.18131 6.68502C9.18521 6.69012 9.18191 6.69952 9.18241 6.70692C9.18021 6.71382 9.18071 6.72282 9.17631 6.72742C8.89351 7.02412 8.80951 7.01822 8.61791 6.66262C8.30101 6.07512 8.26071 5.46252 8.48351 4.83472C8.51991 4.73102 8.57481 4.63102 8.63531 4.53882C8.97971 4.01672 9.52741 3.97292 9.93621 4.44422C10.28 4.84072 10.3825 5.32262 10.3691 5.83382C10.3679 5.88392 10.331 5.95642 10.2901 5.97752C10.1479 6.05032 9.99611 6.10492 9.82751 6.17512Z" fill="white"/>
<path fill-rule="evenodd" clip-rule="evenodd" d="M8.72985 7.77357C8.80045 7.86277 8.85865 7.96797 8.94495 8.03807C9.23215 8.27067 9.51275 8.51777 9.82635 8.70857C10.257 8.97037 10.7403 9.01457 11.2242 8.87167C12.011 8.63917 12.7121 8.25297 13.2945 7.66467C13.3376 7.62147 13.4071 7.60497 13.4642 7.57617C13.4799 7.59467 13.4961 7.61327 13.5118 7.63177C13.453 7.70907 13.4054 7.79837 13.3348 7.86187C12.7115 8.42197 11.9914 8.81337 11.1816 9.02037C10.5723 9.17617 9.99995 9.03517 9.48925 8.68067C9.23445 8.50397 9.00095 8.29497 8.77185 8.08547C8.70295 8.02287 8.68175 7.90887 8.63855 7.81847C8.66885 7.80347 8.69905 7.78857 8.72985 7.77357Z" fill="#1E1E1E"/>
<path fill-rule="evenodd" clip-rule="evenodd" d="M11.1676 6.62407C11.2785 6.59037 11.3295 6.55587 11.3687 6.56637C11.4717 6.59407 11.5708 6.63927 11.6683 6.68447C11.6761 6.68807 11.6588 6.74527 11.6537 6.77757C11.5585 6.75747 11.4628 6.74067 11.3692 6.71577C11.3222 6.70327 11.2796 6.67577 11.1676 6.62407Z" fill="#1E1E1E"/>
<path fill-rule="evenodd" clip-rule="evenodd" d="M10.0173 6.74645C10.1858 6.57005 10.3365 6.53165 10.5196 6.62685C10.3757 6.69545 10.2553 6.85855 10.0173 6.74645Z" fill="#1E1E1E"/>
</svg>
