<svg width="26" height="26" viewBox="0 0 26 26" fill="none" xmlns="http://www.w3.org/2000/svg">
<rect y="2" width="24" height="24" rx="4" fill="url(#paint0_linear_172_6943)"/>
<path fill-rule="evenodd" clip-rule="evenodd" d="M16 2H6.4C4.15979 2 3.03969 2 2.18404 2.43597C1.43139 2.81947 0.819467 3.43139 0.435974 4.18404C0 5.03969 0 6.15979 0 8.4V19.6C0 21.8402 0 22.9603 0.435974 23.816C0.819467 24.5686 1.43139 25.1805 2.18404 25.564C3.03969 26 4.15979 26 6.4 26H17.6C19.8402 26 20.9603 26 21.816 25.564C22.5686 25.1805 23.1805 24.5686 23.564 23.816C24 22.9603 24 21.8402 24 19.6V10H23V19.6C23 20.7366 22.9992 21.5289 22.9488 22.1458C22.8994 22.7509 22.8072 23.0986 22.673 23.362C22.3854 23.9265 21.9265 24.3854 21.362 24.673C21.0986 24.8072 20.7509 24.8994 20.1458 24.9488C19.5289 24.9992 18.7366 25 17.6 25H6.4C5.26339 25 4.47108 24.9992 3.85424 24.9488C3.24907 24.8994 2.90138 24.8072 2.63803 24.673C2.07354 24.3854 1.6146 23.9265 1.32698 23.362C1.19279 23.0986 1.10062 22.7509 1.05118 22.1458C1.00078 21.5289 1 20.7366 1 19.6V8.4C1 7.26339 1.00078 6.47108 1.05118 5.85424C1.10062 5.24907 1.19279 4.90138 1.32698 4.63803C1.6146 4.07354 2.07354 3.6146 2.63803 3.32698C2.90138 3.19279 3.24907 3.10062 3.85424 3.05118C4.47108 3.00078 5.26339 3 6.4 3H16V2Z" fill="white"/>
<rect x="18" width="8" height="8" rx="4" fill="white"/>
<defs>
<linearGradient id="paint0_linear_172_6943" x1="12" y1="2" x2="12" y2="26" gradientUnits="userSpaceOnUse">
<stop stop-color="white" stop-opacity="0"/>
<stop offset="1" stop-color="white" stop-opacity="0.25"/>
</linearGradient>
</defs>
</svg>
