<svg width="28" height="28" viewBox="0 0 28 28" fill="none" xmlns="http://www.w3.org/2000/svg">
<path fill-rule="evenodd" clip-rule="evenodd" d="M27.9266 0C22.8792 0.7005 17.832 1.4265 12.7943 2.1974C12.7911 5.9237 12.7911 9.65 12.7943 13.3795C15.3874 13.3713 17.9798 13.347 20.5717 13.3228C23.0244 13.2998 25.4775 13.2769 27.9298 13.2675C27.9282 11.0561 27.9282 8.8454 27.9282 6.6348C27.9282 4.4235 27.9282 2.2121 27.9266 0ZM11.4124 2.4149C7.603 2.8914 3.7935 3.3968 0 3.9822V13.4626C1.9989 13.4677 3.9979 13.4542 5.9968 13.4407C7.8041 13.4285 9.6115 13.4164 11.4188 13.4179C11.4172 11.5835 11.4164 9.7499 11.4156 7.9164C11.4148 6.0828 11.414 4.2492 11.4124 2.4149ZM0 14.6173C1.9879 14.6106 3.9757 14.624 5.9635 14.6374C7.7788 14.6497 9.594 14.6619 11.4092 14.6589C11.4092 16.0382 11.4106 17.4176 11.4119 18.7969C11.4142 21.0959 11.4164 23.3949 11.4124 25.6938C8.5244 25.266 5.6326 24.8788 2.74 24.4915C1.8267 24.3692 0.9134 24.2469 0 24.1233V14.6173ZM27.9264 14.7645H12.7717C12.7749 16.6171 12.7789 18.4689 12.7829 20.3203C12.7869 22.1672 12.7909 24.0137 12.7941 25.8602C17.8413 26.5447 22.8887 27.2452 27.9264 28C27.9264 26.5284 27.9271 25.0572 27.9278 23.5863C27.9292 20.645 27.9306 17.7047 27.9264 14.7645Z" fill="white"/>
</svg>
