<svg width="30" height="30" viewBox="0 0 30 30" fill="none" xmlns="http://www.w3.org/2000/svg">
<path fill-rule="evenodd" clip-rule="evenodd" d="M8.16675 1.5H16.1667C17.5834 1.5 18.5857 1.50078 19.3693 1.5648C20.1412 1.62787 20.6124 1.74729 20.9827 1.93597C21.7354 2.31947 22.3473 2.93139 22.7308 3.68404C22.8437 3.90563 22.9318 4.16334 22.9979 4.5H24.0138C23.9331 4.00794 23.8099 3.5993 23.6218 3.23005C23.1424 2.28924 22.3775 1.52433 21.4367 1.04497C20.3671 0.5 18.967 0.5 16.1667 0.5H8.16675C5.36649 0.5 3.96635 0.5 2.8968 1.04497C1.95599 1.52433 1.19108 2.28924 0.711715 3.23005C0.166748 4.29961 0.166748 5.69974 0.166748 8.5V16.5C0.166748 19.3003 0.166748 20.7004 0.711715 21.77C1.19108 22.7108 1.95599 23.4757 2.8968 23.955C3.26604 24.1432 3.67469 24.2664 4.16675 24.347V23.3311C3.83009 23.265 3.57238 23.1769 3.35079 23.064C2.59814 22.6805 1.98622 22.0686 1.60272 21.316C1.41404 20.9457 1.29462 20.4745 1.23155 19.7026C1.16753 18.919 1.16675 17.9166 1.16675 16.5V8.5C1.16675 7.08337 1.16753 6.08104 1.23155 5.29744C1.29462 4.52552 1.41404 4.05435 1.60272 3.68404C1.98622 2.93139 2.59814 2.31947 3.35079 1.93597C3.7211 1.74729 4.19227 1.62787 4.96419 1.5648C5.74778 1.50078 6.75012 1.5 8.16675 1.5Z" fill="white" fill-opacity="0.2"/>
<rect x="5.66675" y="6" width="23" height="23" rx="3.5" fill="url(#paint0_linear_172_6653)" stroke="white"/>
<circle cx="19.4167" cy="14.5" r="2" stroke="white"/>
<path fill-rule="evenodd" clip-rule="evenodd" d="M21.3537 15C21.3949 14.8402 21.4167 14.6726 21.4167 14.5C21.4167 14.3274 21.3949 14.1598 21.3537 14H22.9167C23.1929 14 23.4167 14.2239 23.4167 14.5C23.4167 14.7761 23.1929 15 22.9167 15H21.3537ZM17.4798 15H11.4167C11.1406 15 10.9167 14.7761 10.9167 14.5C10.9167 14.2239 11.1406 14 11.4167 14H17.4798C17.4386 14.1598 17.4167 14.3274 17.4167 14.5C17.4167 14.6726 17.4386 14.8402 17.4798 15Z" fill="white"/>
<circle cx="14.9167" cy="20.5" r="2" stroke="white"/>
<path fill-rule="evenodd" clip-rule="evenodd" d="M16.8537 21C16.8949 20.8402 16.9167 20.6726 16.9167 20.5C16.9167 20.3274 16.8949 20.1598 16.8537 20H22.9167C23.1929 20 23.4167 20.2239 23.4167 20.5C23.4167 20.7761 23.1929 21 22.9167 21H16.8537ZM12.9798 21H11.4167C11.1406 21 10.9167 20.7761 10.9167 20.5C10.9167 20.2239 11.1406 20 11.4167 20H12.9798C12.9386 20.1598 12.9167 20.3274 12.9167 20.5C12.9167 20.6726 12.9386 20.8402 12.9798 21Z" fill="white"/>
<defs>
<linearGradient id="paint0_linear_172_6653" x1="17.1667" y1="5.5" x2="17.1667" y2="29.5" gradientUnits="userSpaceOnUse">
<stop stop-color="white" stop-opacity="0"/>
<stop offset="1" stop-color="white" stop-opacity="0.25"/>
</linearGradient>
</defs>
</svg>
