<svg width="226" height="31" viewBox="0 0 226 31" fill="none" xmlns="http://www.w3.org/2000/svg">
<path d="M107.97 17.176L105.71 30.0128H113.033L115.293 17.176C115.835 13.9668 115.519 11.6164 114.343 10.17C113.123 8.7236 110.908 7.9552 107.699 7.9552H101.371L102.772 0H95.4497L90.1613 30.0128H97.4837L100.377 13.56H104.987C106.253 13.56 107.111 13.8764 107.563 14.4188C108.015 15.0064 108.151 15.9104 107.97 17.176Z" fill="white"/>
<path fill-rule="evenodd" clip-rule="evenodd" d="M48.9905 30.0128C45.3745 30.0128 42.7981 29.1088 41.2613 27.2104C39.7245 25.312 39.2725 22.6 39.9053 18.984C40.4929 15.4132 41.8941 12.7012 44.1541 10.8028C46.3689 8.9044 49.2617 7.9552 52.8777 7.9552H65.5337L61.6465 30.0128H48.9905ZM57.2169 13.3792H53.9625C51.9737 13.3792 50.4821 13.8312 49.4425 14.7352C48.4029 15.6392 47.7249 17.0404 47.4085 18.984C47.0469 20.9728 47.2277 22.374 47.9509 23.278C48.6741 24.182 50.0301 24.5888 52.0189 24.5888H55.2733L57.2169 13.3792Z" fill="white"/>
<path d="M65.4613 30.0128L66.4105 24.5888H78.4337C79.3829 24.5888 79.9253 24.1368 80.1061 23.1424C80.2869 22.1932 79.8801 21.696 78.9309 21.696H73.9589C71.7893 21.696 70.2073 21.1084 69.2129 19.888C68.2185 18.7128 67.9021 16.9952 68.3089 14.8256C68.6705 12.656 69.5745 10.9836 71.0209 9.7632C72.4221 8.588 74.2301 7.9552 76.3997 7.9552H88.8749L87.8805 13.3792H77.3941C76.3997 13.3792 75.8573 13.8764 75.7217 14.8256C75.5409 15.82 75.9025 16.272 76.8969 16.272H81.8689C84.0385 16.272 85.6205 16.9048 86.6149 18.08C87.6093 19.3004 87.8805 20.9728 87.5189 23.1424C87.1121 25.312 86.2081 27.0296 84.8069 28.2048C83.4057 29.4252 81.6429 30.0128 79.4733 30.0128H65.4613Z" fill="white"/>
<path d="M144.058 30.0128L146.363 16.9048C146.544 15.7296 146.453 14.916 146.001 14.3736C145.549 13.8312 144.781 13.56 143.606 13.56H141.075L138.182 30.0128H130.859L133.752 13.56H127.876L124.983 30.0128H117.661L121.548 7.9552H146.047C149.256 7.9552 151.471 8.7236 152.691 10.17C153.866 11.6164 154.183 13.9668 153.64 17.176L151.38 30.0128H144.058Z" fill="white"/>
<path fill-rule="evenodd" clip-rule="evenodd" d="M158.19 27.2104C159.727 29.1088 162.303 30.0128 165.919 30.0128H178.575L182.462 7.9552H169.806C166.19 7.9552 163.297 8.9044 161.083 10.8028C158.823 12.7012 157.421 15.4132 156.834 18.984C156.201 22.6 156.653 25.312 158.19 27.2104ZM170.891 13.3792H174.145L172.202 24.5888H168.947C166.959 24.5888 165.603 24.182 164.879 23.278C164.156 22.374 163.975 20.9728 164.337 18.984C164.653 17.0404 165.331 15.6392 166.371 14.7352C167.411 13.8312 168.902 13.3792 170.891 13.3792Z" fill="white"/>
<path d="M191.791 30.0128C190.481 30.0128 189.396 29.9224 188.582 29.6512C187.723 29.38 187.045 28.9732 186.593 28.4308C186.141 27.8884 185.825 27.1652 185.735 26.2612C185.644 25.3572 185.689 24.2724 185.961 22.9616L187.633 13.3792H184.559L185.554 7.9552H188.627L189.622 2.0792H196.944L195.95 7.9552H202.73L201.735 13.3792H194.955L193.328 22.6C193.193 23.3232 193.238 23.8656 193.509 24.1368C193.78 24.4532 194.277 24.5888 195.001 24.5888H199.882L198.933 30.0128H191.791Z" fill="white"/>
<path d="M204.317 27.2104C205.854 29.1088 208.43 30.0128 212.046 30.0128H221.628L222.578 24.5888H214.08C212.453 24.5888 211.323 24.3176 210.735 23.7752C210.148 23.2328 209.876 22.5096 209.967 21.6056H222.713L223.662 16.272H210.916C211.187 15.368 211.73 14.69 212.453 14.1476C213.176 13.6504 214.396 13.3792 216.024 13.3792H224.34L225.335 7.9552H215.933C212.317 7.9552 209.424 8.9044 207.21 10.8028C204.95 12.7012 203.548 15.4132 202.961 18.984C202.328 22.6 202.78 25.312 204.317 27.2104Z" fill="white"/>
<path d="M24.8598 0.0126953H11.4098L10.2952 6.24295L22.4321 6.25758C28.4095 6.25758 30.177 8.42756 30.1266 12.0301C30.1006 13.8757 29.3006 16.9953 28.955 18.0067C28.0339 20.7027 26.142 23.7792 19.0475 23.767L7.24957 23.7621L6.13246 29.9948H19.5523C24.2858 29.9948 26.3005 29.4444 28.4306 28.459C33.1568 26.2768 35.969 21.6125 37.0951 15.5253C38.7732 6.46084 36.6837 0.0126953 24.8598 0.0126953Z" fill="white"/>
<path d="M5.60631 11.874C2.12877 11.874 1.59205 14.1113 1.25817 15.503L1.24522 15.557C0.808621 17.3741 0.665527 18.1099 0.665527 18.1099H14.4366C17.9142 18.1099 18.4509 15.8726 18.7848 14.4809L18.7977 14.4269C19.2343 12.6098 19.3774 11.874 19.3774 11.874H5.60631Z" fill="white"/>
</svg>
