<svg width="192" height="62" viewBox="0 0 192 62" fill="none" xmlns="http://www.w3.org/2000/svg">
<path fill-rule="evenodd" clip-rule="evenodd" d="M60.9617 17C55.9143 17.7005 50.8671 18.4265 45.8294 19.1974C45.8262 22.9237 45.8262 26.65 45.8294 30.3795C48.4225 30.3713 51.0149 30.347 53.6068 30.3228L53.6073 30.3228L53.6077 30.3228C56.0604 30.2998 58.5126 30.2769 60.9649 30.2675C60.9633 28.0561 60.9633 25.8454 60.9633 23.6348C60.9633 21.4235 60.9633 19.2121 60.9617 17ZM44.4475 19.4149C40.6381 19.8914 36.8286 20.3968 33.0351 20.9822V30.4626C35.034 30.4677 37.033 30.4542 39.0319 30.4407C40.8392 30.4285 42.6466 30.4164 44.4539 30.4179C44.4523 28.5835 44.4515 26.7499 44.4507 24.9164C44.4499 23.0828 44.4491 21.2492 44.4475 19.4149ZM33.0351 31.6173C35.023 31.6106 37.0108 31.624 38.9986 31.6374C40.8139 31.6497 42.6291 31.6619 44.4443 31.6589C44.4443 33.0382 44.4457 34.4176 44.447 35.7969C44.4493 38.0959 44.4515 40.3949 44.4475 42.6938C41.5595 42.266 38.6677 41.8788 35.7751 41.4915C34.8618 41.3692 33.9485 41.2469 33.0351 41.1233V31.6173ZM60.9615 31.7645H45.8068C45.81 33.6171 45.814 35.4689 45.818 37.3203C45.822 39.1672 45.826 41.0137 45.8292 42.8602C50.8764 43.5447 55.9238 44.2452 60.9615 45C60.9615 43.5284 60.9622 42.0572 60.9629 40.5863C60.9643 37.645 60.9657 34.7047 60.9615 31.7645Z" fill="white"/>
<path d="M83.518 37L79.396 24.4H82.42L86.002 35.56H84.49L88.234 24.4H90.934L94.534 35.56H93.076L96.748 24.4H99.538L95.416 37H92.284L89.098 27.208H89.926L86.65 37H83.518ZM101.126 37V27.316H103.934V37H101.126ZM102.53 25.966C102.014 25.966 101.594 25.816 101.27 25.516C100.946 25.216 100.784 24.844 100.784 24.4C100.784 23.956 100.946 23.584 101.27 23.284C101.594 22.984 102.014 22.834 102.53 22.834C103.046 22.834 103.466 22.978 103.79 23.266C104.114 23.542 104.276 23.902 104.276 24.346C104.276 24.814 104.114 25.204 103.79 25.516C103.478 25.816 103.058 25.966 102.53 25.966ZM112.426 27.172C113.194 27.172 113.878 27.328 114.478 27.64C115.09 27.94 115.57 28.408 115.918 29.044C116.266 29.668 116.44 30.472 116.44 31.456V37H113.632V31.888C113.632 31.108 113.458 30.532 113.11 30.16C112.774 29.788 112.294 29.602 111.67 29.602C111.226 29.602 110.824 29.698 110.464 29.89C110.116 30.07 109.84 30.352 109.636 30.736C109.444 31.12 109.348 31.612 109.348 32.212V37H106.54V27.316H109.222V29.998L108.718 29.188C109.066 28.54 109.564 28.042 110.212 27.694C110.86 27.346 111.598 27.172 112.426 27.172ZM123.214 37.144C122.302 37.144 121.48 36.94 120.748 36.532C120.016 36.112 119.434 35.53 119.002 34.786C118.582 34.042 118.372 33.166 118.372 32.158C118.372 31.138 118.582 30.256 119.002 29.512C119.434 28.768 120.016 28.192 120.748 27.784C121.48 27.376 122.302 27.172 123.214 27.172C124.03 27.172 124.744 27.352 125.356 27.712C125.968 28.072 126.442 28.618 126.778 29.35C127.114 30.082 127.282 31.018 127.282 32.158C127.282 33.286 127.12 34.222 126.796 34.966C126.472 35.698 126.004 36.244 125.392 36.604C124.792 36.964 124.066 37.144 123.214 37.144ZM123.7 34.84C124.156 34.84 124.57 34.732 124.942 34.516C125.314 34.3 125.608 33.994 125.824 33.598C126.052 33.19 126.166 32.71 126.166 32.158C126.166 31.594 126.052 31.114 125.824 30.718C125.608 30.322 125.314 30.016 124.942 29.8C124.57 29.584 124.156 29.476 123.7 29.476C123.232 29.476 122.812 29.584 122.44 29.8C122.068 30.016 121.768 30.322 121.54 30.718C121.324 31.114 121.216 31.594 121.216 32.158C121.216 32.71 121.324 33.19 121.54 33.598C121.768 33.994 122.068 34.3 122.44 34.516C122.812 34.732 123.232 34.84 123.7 34.84ZM126.238 37V35.02L126.292 32.14L126.112 29.278V23.644H128.92V37H126.238ZM136.127 37.144C135.095 37.144 134.177 36.928 133.373 36.496C132.581 36.064 131.951 35.476 131.483 34.732C131.027 33.976 130.799 33.118 130.799 32.158C130.799 31.186 131.027 30.328 131.483 29.584C131.951 28.828 132.581 28.24 133.373 27.82C134.177 27.388 135.095 27.172 136.127 27.172C137.147 27.172 138.059 27.388 138.863 27.82C139.667 28.24 140.297 28.822 140.753 29.566C141.209 30.31 141.437 31.174 141.437 32.158C141.437 33.118 141.209 33.976 140.753 34.732C140.297 35.476 139.667 36.064 138.863 36.496C138.059 36.928 137.147 37.144 136.127 37.144ZM136.127 34.84C136.595 34.84 137.015 34.732 137.387 34.516C137.759 34.3 138.053 33.994 138.269 33.598C138.485 33.19 138.593 32.71 138.593 32.158C138.593 31.594 138.485 31.114 138.269 30.718C138.053 30.322 137.759 30.016 137.387 29.8C137.015 29.584 136.595 29.476 136.127 29.476C135.659 29.476 135.239 29.584 134.867 29.8C134.495 30.016 134.195 30.322 133.967 30.718C133.751 31.114 133.643 31.594 133.643 32.158C133.643 32.71 133.751 33.19 133.967 33.598C134.195 33.994 134.495 34.3 134.867 34.516C135.239 34.732 135.659 34.84 136.127 34.84ZM145.264 37L141.772 27.316H144.418L147.316 35.65H146.056L149.08 27.316H151.456L154.39 35.65H153.13L156.118 27.316H158.602L155.092 37H152.374L149.8 29.854H150.628L147.964 37H145.264ZM163.025 37.144C162.197 37.144 161.399 37.048 160.631 36.856C159.875 36.652 159.275 36.4 158.831 36.1L159.767 34.084C160.211 34.36 160.733 34.588 161.333 34.768C161.945 34.936 162.545 35.02 163.133 35.02C163.781 35.02 164.237 34.942 164.501 34.786C164.777 34.63 164.915 34.414 164.915 34.138C164.915 33.91 164.807 33.742 164.591 33.634C164.387 33.514 164.111 33.424 163.763 33.364C163.415 33.304 163.031 33.244 162.611 33.184C162.203 33.124 161.789 33.046 161.369 32.95C160.949 32.842 160.565 32.686 160.217 32.482C159.869 32.278 159.587 32.002 159.371 31.654C159.167 31.306 159.065 30.856 159.065 30.304C159.065 29.692 159.239 29.152 159.587 28.684C159.947 28.216 160.463 27.85 161.135 27.586C161.807 27.31 162.611 27.172 163.547 27.172C164.207 27.172 164.879 27.244 165.563 27.388C166.247 27.532 166.817 27.742 167.273 28.018L166.337 30.016C165.869 29.74 165.395 29.554 164.915 29.458C164.447 29.35 163.991 29.296 163.547 29.296C162.923 29.296 162.467 29.38 162.179 29.548C161.891 29.716 161.747 29.932 161.747 30.196C161.747 30.436 161.849 30.616 162.053 30.736C162.269 30.856 162.551 30.952 162.899 31.024C163.247 31.096 163.625 31.162 164.033 31.222C164.453 31.27 164.873 31.348 165.293 31.456C165.713 31.564 166.091 31.72 166.427 31.924C166.775 32.116 167.057 32.386 167.273 32.734C167.489 33.07 167.597 33.514 167.597 34.066C167.597 34.666 167.417 35.2 167.057 35.668C166.697 36.124 166.175 36.484 165.491 36.748C164.819 37.012 163.997 37.144 163.025 37.144Z" fill="white"/>
<rect x="1" y="1" width="190" height="60" rx="10" stroke="white" stroke-opacity="0.25"/>
<rect x="1" y="1" width="190" height="60" rx="10" stroke="url(#paint0_linear_106_2398)"/>
<defs>
<linearGradient id="paint0_linear_106_2398" x1="191" y1="31.4615" x2="1" y2="31.4615" gradientUnits="userSpaceOnUse">
<stop offset="0.537314" stop-color="white" stop-opacity="0"/>
<stop offset="0.747808" stop-color="white"/>
<stop offset="0.91059" stop-color="white" stop-opacity="0"/>
</linearGradient>
</defs>
</svg>
